<?xml version="1.0" standalone="no"?>
<!DOCTYPE svg PUBLIC "-//W3C//DTD SVG 20010904//EN"
 "http://www.w3.org/TR/2001/REC-SVG-20010904/DTD/svg10.dtd">
<svg version="1.0" xmlns="http://www.w3.org/2000/svg"
 width="1329.000000pt" height="1329.000000pt" viewBox="0 0 1329.000000 1329.000000"
 preserveAspectRatio="xMidYMid meet">
<metadata>
Created by potrace 1.14, written by Peter Selinger 2001-2017
</metadata>
<g transform="translate(0.000000,1329.000000) scale(0.100000,-0.100000)"
fill="#000000" stroke="none">
<path d="M7745 11015 c-61 -17 -86 -30 -150 -76 -88 -63 -149 -151 -189 -269
-88 -263 -1 -496 228 -610 386 -192 724 -37 803 370 21 108 -7 260 -65 350
-60 92 -154 162 -282 209 -119 43 -248 52 -345 26z"/>
<path d="M7066 9273 c-9 -21 -205 -641 -210 -663 -4 -13 -76 -246 -111 -355
-23 -70 -106 -337 -130 -415 -13 -41 -73 -235 -135 -430 -62 -195 -118 -375
-125 -400 -7 -25 -85 -274 -173 -555 -219 -697 -320 -1018 -344 -1095 -22 -72
-46 -148 -319 -1020 -105 -333 -192 -612 -194 -620 -1 -9 -14 -50 -29 -92
-124 -369 -291 -528 -561 -530 -101 0 -170 14 -320 66 -123 42 -164 59 -237
97 -31 16 -59 29 -62 29 -3 0 -25 -64 -50 -142 -25 -79 -62 -197 -83 -263 -20
-66 -38 -122 -38 -125 -1 -3 -11 -38 -24 -79 l-23 -74 29 -23 c15 -13 34 -23
41 -24 6 0 12 -4 12 -9 0 -14 279 -147 379 -180 117 -39 262 -75 341 -86 128
-17 331 -23 389 -10 14 3 42 7 61 9 112 15 295 89 414 168 94 63 253 229 329
344 101 152 202 366 266 564 35 111 152 483 166 530 7 25 52 169 100 320 48
151 104 331 125 400 21 69 48 152 58 185 11 33 38 119 60 190 55 175 651 2080
712 2275 27 85 90 286 140 445 51 160 100 317 110 350 10 33 82 264 160 513
78 250 140 455 138 456 -3 3 -800 252 -839 263 -9 3 -19 -3 -23 -14z"/>
<path d="M3880 8566 c-63 -29 -142 -65 -175 -81 -33 -15 -112 -51 -175 -80
-63 -29 -149 -68 -190 -88 -78 -36 -173 -80 -275 -127 -33 -15 -94 -43 -135
-63 -111 -52 -228 -106 -290 -134 -106 -47 -126 -57 -248 -115 -68 -32 -125
-58 -127 -58 -1 0 -47 -21 -101 -46 -55 -26 -137 -64 -184 -86 -47 -21 -103
-47 -125 -58 -22 -10 -69 -32 -105 -48 -36 -16 -101 -46 -145 -67 -135 -62
-337 -156 -395 -182 -30 -14 -93 -43 -140 -65 -47 -22 -134 -63 -195 -90 -60
-28 -161 -74 -224 -104 -62 -30 -114 -54 -116 -54 -3 0 -112 -50 -405 -186
-52 -24 -102 -48 -110 -53 -13 -7 -15 -57 -16 -352 0 -189 3 -352 8 -361 4 -9
17 -20 28 -23 11 -4 76 -33 143 -65 67 -32 174 -81 237 -110 63 -29 183 -84
265 -122 83 -39 177 -83 210 -98 51 -23 269 -124 550 -255 39 -18 124 -57 190
-88 66 -30 164 -76 218 -101 54 -25 99 -46 101 -46 2 0 70 -31 151 -70 81 -38
148 -70 150 -70 2 0 50 -22 107 -49 88 -42 588 -274 853 -396 44 -20 107 -49
140 -64 33 -16 85 -40 115 -54 73 -33 198 -91 285 -132 125 -60 227 -105 235
-105 5 0 9 213 9 473 l0 474 -50 22 c-28 12 -211 86 -407 165 -196 79 -665
268 -1042 421 -377 152 -813 328 -970 392 -157 63 -341 138 -410 166 -69 29
-127 52 -130 52 -3 0 -13 5 -23 11 -15 9 33 32 270 129 158 65 306 126 328
136 44 19 360 149 375 154 3 1 16 6 30 12 14 6 120 50 235 97 116 48 220 91
233 96 47 21 74 32 302 125 261 107 395 162 425 175 11 5 49 21 85 36 36 14
79 32 95 39 17 7 147 61 290 119 143 59 283 117 312 129 l52 22 0 478 c-1 262
-1 477 -2 477 -1 -1 -54 -25 -117 -54z"/>
<path d="M9115 8165 c0 -280 4 -458 10 -464 6 -5 120 -53 255 -106 135 -52
254 -100 265 -105 11 -5 403 -158 870 -340 468 -183 863 -338 879 -346 16 -8
33 -14 39 -14 5 0 23 -6 40 -14 18 -8 208 -83 422 -166 215 -84 402 -157 418
-164 26 -12 10 -20 -320 -151 -192 -76 -361 -143 -378 -150 -16 -7 -79 -32
-140 -55 -60 -23 -123 -48 -140 -56 -16 -8 -95 -39 -175 -70 -80 -30 -154 -60
-165 -64 -11 -5 -164 -66 -340 -135 -392 -155 -415 -164 -440 -175 -11 -5
-117 -47 -235 -94 -506 -198 -855 -339 -860 -346 -3 -4 -5 -214 -4 -467 0
-418 2 -458 16 -455 16 2 125 49 278 119 36 17 115 52 175 78 61 26 139 61
175 77 36 16 79 36 95 43 17 8 174 78 350 155 176 78 340 151 365 162 25 12
100 45 167 74 67 29 130 58 140 63 10 5 275 123 588 261 314 139 614 272 667
296 54 24 99 44 102 44 2 0 43 18 90 40 47 22 87 40 90 40 2 0 39 17 82 37 44
20 81 37 84 38 14 4 71 29 128 55 35 17 65 30 67 30 2 0 36 15 77 34 40 19
107 48 148 66 41 18 107 47 145 64 39 18 84 38 102 45 17 7 33 18 36 24 2 7 3
169 3 360 l-1 348 -75 33 c-41 19 -151 67 -245 109 -93 41 -314 139 -490 217
-399 177 -348 154 -565 250 -102 45 -199 87 -215 95 -17 7 -50 22 -75 33 -25
11 -70 31 -100 45 -30 13 -129 57 -220 97 -91 40 -184 81 -207 91 -23 10 -178
79 -345 153 -167 74 -328 145 -358 159 -193 87 -1262 557 -1268 557 -4 0 -7
-205 -7 -455z"/>
</g>
</svg>
